<?xml version="1.0" encoding="utf-8"?>
<!-- Generator: Adobe Illustrator 24.1.0, SVG Export Plug-In . SVG Version: 6.00 Build 0)  -->
<svg version="1.1" id="Layer_1" xmlns="http://www.w3.org/2000/svg" xmlns:xlink="http://www.w3.org/1999/xlink" x="0px" y="0px"
	 viewBox="0 0 194.3 114.3" style="enable-background:new 0 0 194.3 114.3;" xml:space="preserve">
<style type="text/css">
	.st0{fill:#F5F5F5;}
</style>
<path class="st0" d="M5.4,84.4c3.9-3.1,8.4-5.3,13.3-6.4c5.2-1.3,10.6-2.2,16-2.5c5.7-0.4,11.5-0.5,17.4-0.4s11.7,0.1,17.3,0
	c5.3-0.1,10.6-0.6,15.8-1.4c4.6-0.7,9.1-2.3,13.1-4.7c0.5-3.6,1.2-7.2,2.3-10.7c1.8-5.4,4-10.7,6.6-15.8c2.5-4.9,5.3-9.8,8.4-14.3
	c2.7-4.2,5.8-8.1,9.1-11.7c2.6-2.9,5.4-5.7,8.4-8.2c1.8-1.4,3.8-2.7,5.8-3.7c1.9-1.1,4.1-1.5,6.3-1.2c1.4,0.2,2.7,0.9,3.6,2
	c0.8,0.9,1.2,2.2,1.3,3.4c0.1,1.3,0,2.7-0.3,4c-0.3,1.2-0.8,2.5-1.4,3.6c-1.7,3-3.7,6-5.9,8.7c-2.5,3.1-5.1,6.3-8,9.6
	c-2.8,3.3-5.9,6.5-8.9,9.8c-3,3.2-6.1,6.3-8.9,9.2s-5.6,5.5-8.1,8c-2.5,2.5-4.5,4.5-6.1,6.1c-0.4,3.6-0.6,6.8-0.7,9.8
	c-0.1,1.9-0.1,3.8,0.1,5.7c0.4-0.6,0.8-1.3,1.1-2.2c0.4-0.9,0.9-1.7,1.6-2.5c0.6-0.8,1.3-1.4,2.2-1.9c0.9-0.5,2-0.7,3-0.5
	c1.7,0.5,2.9,1.9,3.2,3.6c0.1,1.2,0.1,2.4,0,3.6c-0.2,2.1-0.4,4.2-0.8,6.3c-0.4,2.1-0.7,4.1-1,6.1c-0.2,0.9-0.4,1.8-0.5,2.7
	c-0.1,1-0.2,2.1-0.1,3.2c0,1,0.2,2,0.5,3c0.2,0.9,0.7,1.6,1.2,2.3c2.3,2.6,5.7,3.8,9.1,3.3c4.3-0.5,8.3-1.7,12.2-3.6
	c4.9-2.3,9.6-5,13.9-8.2c4.8-3.4,9.6-6.9,14.2-10.5c4.6-3.6,9.1-7.1,13.3-10.3c3.5-2.8,7.2-5.5,11-7.9c0.4-0.3,0.7-0.5,0.9-0.7
	c0.3-0.2,0.7-0.4,1-0.5c0.2,0.2,0.4,0.3,0.7,0.3c-0.3,0.3-0.6,0.6-0.9,0.8c-0.5,0.3-0.9,0.7-1.2,1c-4,2.7-8.2,5.9-12.9,9.6
	c-4.5,3.7-9.3,7.4-14.1,11.2c-4.8,3.7-9.7,7.3-14.4,10.6c-4.3,3-8.9,5.6-13.6,7.7c-3.8,1.7-7.9,2.6-12,2.6c-3.7-0.1-7.1-1.8-9.4-4.7
	c-1.3-1.6-2.2-3.5-2.5-5.6c-0.4-2.2-0.4-4.4-0.1-6.4c0.2-2.1,0.4-4.2,0.7-6.3s0.7-4,0.9-6c0.2-0.6,0.3-1.2,0.3-1.8
	c0-0.7,0-1.2-0.2-1.9c-0.3-1.5-0.9-1.7-2.1-0.7c-0.9,0.8-1.6,1.6-2.2,2.7c-0.6,1-0.9,2.2-1.2,3.3c-0.4,1.3-0.6,2.7-0.7,4.1
	c-0.1,1.3,0.2,2.7,0.9,4c0.1,0.4,0,0.6-0.1,0.7c-0.2,0.1-0.4,0.2-0.6,0.3c-0.2,0-0.4,0.1-0.5,0.3c-0.1,0.1-0.1,0.3,0.2,0.6
	s0.1,0.3-0.3,0.3s-0.7-0.1-0.9-0.4c-0.6-0.3-1.1-0.8-1.5-1.2c-0.4-0.5-0.7-1-1-1.6c-0.9-2.9-1.5-6-1.6-9c-0.2-3.8-0.1-7.7,0.3-11.5
	c-3.9,2.3-8.2,3.8-12.8,4.4c-5.3,0.9-10.7,1.3-16.1,1.5c-5.8,0.2-11.7,0.3-17.7,0.3s-11.7-0.7-17.2-0.3c-5.2,0.4-10.3,1.2-15.4,2.6
	c-4.3,1-8.1,3.1-11.4,6.1c-0.3,0.3-0.6,0.4-0.9,0.4c-0.4,0-0.7-0.1-1-0.2c-0.3-0.1-0.5-0.3-0.6-0.6C4.9,85,5.1,84.7,5.4,84.4z
	 M103.2,64.7c1.5-1.2,3.4-3,5.7-5.2c2.3-2.2,4.7-4.7,7.3-7.6c2.6-2.8,5.2-5.9,8.1-9c2.8-3.1,5.4-6.3,8.1-9.4
	c2.6-3.1,4.9-6.1,7.1-8.9s3.9-5.3,5.4-7.5c0.7-0.9,1.1-2,1.6-3c0.4-1,0.7-2.2,0.9-3.3c0.4-1.4,0.3-2.8-0.1-4.2
	c-0.4-0.9-1.2-1.4-2.1-1.4c-0.9,0-1.9,0.3-2.7,0.8c-0.9,0.6-1.8,1.1-2.7,1.8c-0.9,0.8-1.5,1.3-2,1.7c-3.1,2.5-5.9,5.2-8.4,8.2
	c-3,3.6-6,7.5-9,11.8c-3,4.4-5.8,8.9-8.4,13.6c-2.5,4.5-4.5,9.1-6.3,13.8c-0.5,1.1-0.9,2.3-1.2,3.4
	C103.7,62.1,103.4,63.6,103.2,64.7z"/>
</svg>
