<svg xmlns="http://www.w3.org/2000/svg" xmlns:xlink="http://www.w3.org/1999/xlink" viewBox="0 0 147.64 82.8"><defs><style>.cls-1{opacity:0.1;}.cls-2{fill:url(#linear-gradient);}.cls-3{fill:url(#linear-gradient-2);}.cls-4{fill:url(#linear-gradient-3);}.cls-5{fill:url(#linear-gradient-4);}.cls-6{fill:url(#linear-gradient-5);}</style><linearGradient id="linear-gradient" x1="40.63" y1="35.15" x2="66.62" y2="9.16" gradientUnits="userSpaceOnUse"><stop offset="0" stop-color="#ff153c"/><stop offset="0.98" stop-color="#ff9c00"/></linearGradient><linearGradient id="linear-gradient-2" x1="54.98" y1="49.51" x2="80.98" y2="23.52" xlink:href="#linear-gradient"/><linearGradient id="linear-gradient-3" x1="72.27" y1="66.8" x2="98.27" y2="40.81" xlink:href="#linear-gradient"/><linearGradient id="linear-gradient-4" x1="90.09" y1="84.61" x2="116.08" y2="58.62" xlink:href="#linear-gradient"/><linearGradient id="linear-gradient-5" x1="97.24" y1="91.77" x2="123.23" y2="65.78" xlink:href="#linear-gradient"/></defs><g id="Layer_2" data-name="Layer 2"><g id="Layer_1-2" data-name="Layer 1"><g class="cls-1"><path d="M.31,62.22a26.51,26.51,0,0,1,10.16-5,69.25,69.25,0,0,1,12.25-1.89c4.31-.3,8.76-.39,13.33-.3s9,.1,13.27,0A88,88,0,0,0,61.43,54a26.27,26.27,0,0,0,10-3.65,47.49,47.49,0,0,1,1.75-8.17A84,84,0,0,1,78.2,30.08a107.85,107.85,0,0,1,6.42-10.94,81,81,0,0,1,6.95-9A55.65,55.65,0,0,1,98,3.88a29.14,29.14,0,0,1,4.42-2.82,7.46,7.46,0,0,1,4.81-1A4.55,4.55,0,0,1,110,1.59a5,5,0,0,1,1,2.58,8.9,8.9,0,0,1-.25,3,10.23,10.23,0,0,1-1.07,2.73,53.55,53.55,0,0,1-4.52,6.66q-2.76,3.56-6.07,7.29T92.3,31.3c-2.34,2.46-4.6,4.8-6.81,7s-4.24,4.23-6.12,6.08S75.93,47.77,74.7,49q-.39,4.08-.49,7.44a25.42,25.42,0,0,0,.1,4.32c.26-.45.55-1,.87-1.7a9,9,0,0,1,1.22-1.89,5.72,5.72,0,0,1,1.7-1.41,3.65,3.65,0,0,1,2.34-.34,3.4,3.4,0,0,1,2.43,2.72,20.55,20.55,0,0,1,0,2.72c-.13,1.62-.33,3.21-.59,4.77s-.52,3.11-.77,4.66a19.66,19.66,0,0,0-.35,2.09,15.2,15.2,0,0,0-.09,2.43,9.8,9.8,0,0,0,.34,2.29,3.84,3.84,0,0,0,1,1.75,8,8,0,0,0,7,2.53,28.88,28.88,0,0,0,9.34-2.77,71.73,71.73,0,0,0,10.65-6.27q5.54-3.9,10.89-8t10.16-7.92a94.92,94.92,0,0,1,8.41-6c.26-.2.49-.36.68-.49a4,4,0,0,1,.78-.39.66.66,0,0,0,.48.2,2,2,0,0,1-.68.58,5.53,5.53,0,0,0-1,.78q-4.57,3.12-9.82,7.34t-10.79,8.51q-5.55,4.27-11,8.07A58.64,58.64,0,0,1,97,80.84a21.72,21.72,0,0,1-9.19,2,9.41,9.41,0,0,1-7.15-3.65,8.6,8.6,0,0,1-1.85-4.28,18,18,0,0,1-.09-5c.12-1.62.3-3.21.53-4.76s.47-3.08.73-4.57a8.32,8.32,0,0,0,.24-1.41,4.49,4.49,0,0,0-.14-1.41c-.2-1.17-.72-1.33-1.56-.49a6.33,6.33,0,0,0-1.65,2.05,13.73,13.73,0,0,0-1,2.52,21.33,21.33,0,0,0-.54,3.11A5.22,5.22,0,0,0,76,68c.07.26,0,.44-.09.53a1.09,1.09,0,0,1-.44.2.8.8,0,0,0-.39.19c-.1.1-.05.25.14.44s0,.2-.24.2a1,1,0,0,1-.73-.3,2.83,2.83,0,0,1-1.16-1q-.39-.59-.78-1.26a25.11,25.11,0,0,1-1.22-6.91,53,53,0,0,1,.25-8.75,26.78,26.78,0,0,1-9.73,3.36,101.91,101.91,0,0,1-12.35,1.16q-6.61.26-13.56.2t-13.32.44a62.45,62.45,0,0,0-11.72,1.94A19.53,19.53,0,0,0,2,63.1a1,1,0,0,1-.73.29,1.86,1.86,0,0,1-.77-.15A.7.7,0,0,1,0,62.81C0,62.61.05,62.42.31,62.22ZM75,47.15q1.76-1.45,4.38-4T85,37.38c2-2.17,4-4.46,6.12-6.86s4.15-4.78,6.13-7.15,3.78-4.63,5.4-6.8,3-4.07,4.08-5.69a13.71,13.71,0,0,0,1.17-2.33A20.93,20.93,0,0,0,108.64,6a6.19,6.19,0,0,0-.1-3.21,1.79,1.79,0,0,0-1.61-1.07,4.35,4.35,0,0,0-2.09.58,12.4,12.4,0,0,0-2,1.41l-1.56,1.32a42.56,42.56,0,0,0-6.36,6.32,110.47,110.47,0,0,0-6.86,9q-3.4,5-6.42,10.45a77.15,77.15,0,0,0-4.86,10.55A23.72,23.72,0,0,0,75.82,44C75.46,45.2,75.18,46.24,75,47.15Z"/></g><path d="M92.23,53.93l-1.49,3.69h-.1l-1.2-3-1.22,3h-.1l-1.48-3.69h.53l1,2.53,1-2.53h.5l1,2.53,1-2.53Z"/><path d="M94.88,53.93v.47H93.33v1.11h1.5V56h-1.5v1.14h1.6v.48H92.8V53.93Z"/><path d="M95.65,57.6V53.93h1.07a1.26,1.26,0,0,1,.77.23.82.82,0,0,1,.35.71.78.78,0,0,1-.56.78h0a1.11,1.11,0,0,1,.63.31.91.91,0,0,1,.26.65.86.86,0,0,1-.41.75,1.52,1.52,0,0,1-.85.23Zm.53-3.2v1.1h.35c.51,0,.77-.19.77-.58s-.21-.52-.64-.52Zm0,1.57v1.15h.66c.52,0,.78-.19.78-.58a.48.48,0,0,0-.27-.45,1.08,1.08,0,0,0-.54-.12Z"/><path d="M100.5,57.6V53.93h1.42a1.94,1.94,0,0,1,1.49.59,1.8,1.8,0,0,1,.46,1.24,1.72,1.72,0,0,1-.57,1.33,2,2,0,0,1-1.37.51Zm.52-3.2v2.72h.84a1.42,1.42,0,0,0,1.19-.51,1.4,1.4,0,0,0,.28-.85,1.26,1.26,0,0,0-.42-1,1.6,1.6,0,0,0-1.07-.35Z"/><path d="M106.76,53.93v.47h-1.55v1.11h1.5V56h-1.5v1.14h1.6v.48h-2.13V53.93Z"/><path d="M109.27,54.14v.6a1.2,1.2,0,0,0-.86-.38.65.65,0,0,0-.38.1.38.38,0,0,0-.2.33c0,.19.14.37.41.54l.77.48a1.07,1.07,0,0,1,.41.84,1,1,0,0,1-.29.72,1.05,1.05,0,0,1-.74.27,1.68,1.68,0,0,1-1-.33v-.67a1.19,1.19,0,0,0,1,.53.75.75,0,0,0,.4-.11.42.42,0,0,0,.2-.35.75.75,0,0,0-.41-.59c-.14-.1-.4-.27-.77-.5a1,1,0,0,1-.41-.76.88.88,0,0,1,.33-.73,1.17,1.17,0,0,1,.79-.25A1.47,1.47,0,0,1,109.27,54.14Z"/><path d="M110.69,53.93V57.6h-.53V53.93Z"/><path d="M114.88,55.79v1.55a3.3,3.3,0,0,1-1.4.3,2,2,0,0,1-1.39-.51,1.74,1.74,0,0,1-.56-1.34,1.77,1.77,0,0,1,.58-1.37,1.91,1.91,0,0,1,1.39-.54,3.41,3.41,0,0,1,1.3.32v.53a2.67,2.67,0,0,0-1.31-.36,1.36,1.36,0,0,0-1,.4,1.42,1.42,0,0,0,0,2,1.52,1.52,0,0,0,1.06.37,2.87,2.87,0,0,0,.79-.14v-.76h-.7v-.47Z"/><path d="M119.19,53.93V57.6h-.45l-2.45-2.82V57.6h-.5V53.93h.42l2.48,2.84V53.93Z"/><path d="M122.23,53.93v.47h-1.55v1.11h1.5V56h-1.5v1.14h1.6v.48h-2.13V53.93Z"/><path d="M123,53.93h.93a1.29,1.29,0,0,1,.84.25.92.92,0,0,1,.36.78.89.89,0,0,1-.61.9,1.88,1.88,0,0,1,.43.42c.07.09.19.29.39.59s.26.39.5.73h-.63l-.49-.76a3.19,3.19,0,0,0-.56-.7.65.65,0,0,0-.41-.13h-.22V57.6H123Zm.53.45v1.15h.34c.49,0,.73-.2.72-.59s-.25-.56-.72-.56Z"/><path class="cls-2" d="M40.84,49.71a6.67,6.67,0,0,1-5.51-2.79C34.38,45.63,33.45,45,32.54,45a4,4,0,0,0-2.49,1.39,6,6,0,0,1-1.76,1.29c-.52,0-.83-.34-.92-1a1.83,1.83,0,0,0-1.76-1.5,4.31,4.31,0,0,0-2.71,1.36c-1.55,1.55-2.72,2.32-3.52,2.32s-1.09-.72-1.09-2.18a6.2,6.2,0,0,1,.17-1.42,13.3,13.3,0,0,0,.17-1.68c0-.15-.08-.22-.23-.22l-2.32,1.4a40.78,40.78,0,0,1-6.65,3.52l-.16,0c-.34,0-.51-.17-.51-.53a.64.64,0,0,1,.34-.56,36.46,36.46,0,0,0,6.45-3.46,3.7,3.7,0,0,0,.45-.31,5.59,5.59,0,0,1,2.77-1.25c.63,0,.95.53.95,1.53a9.85,9.85,0,0,1-.14,1.62,11.24,11.24,0,0,0-.17,1.32,2.68,2.68,0,0,0,.11,1l.17,0,.17,0a8.61,8.61,0,0,0,1.56-1.2c.71-.65,1.33-1.19,1.87-1.6A3.88,3.88,0,0,1,25.5,44a2.87,2.87,0,0,1,1.9.7,3.07,3.07,0,0,1,1.09,1.59c.2-.17.47-.42.81-.76a5.34,5.34,0,0,1,3.07-1.67,4.68,4.68,0,0,1,3.83,2.37,5.72,5.72,0,0,0,4.58,2.32,14.4,14.4,0,0,0,5.76-1.37l.19,0a.57.57,0,0,1,.62.54.55.55,0,0,1-.31.5,18.16,18.16,0,0,1-5.31,1.42A7.12,7.12,0,0,1,40.84,49.71Z"/><path class="cls-3" d="M42.54,68.12a4.32,4.32,0,0,1-.7-.06A2,2,0,0,1,40.36,66a4.72,4.72,0,0,1,.48-2.1,17.4,17.4,0,0,1,3.54-4.8,50.55,50.55,0,0,1,9.25-7.68c.47-1.4.79-2.47,1-3.22q.45-1.39.87-2.43c-1.18,1.18-2,2-2.49,2.54a9.17,9.17,0,0,1-2.38,2.07,1.51,1.51,0,0,1-.75.23.82.82,0,0,1-.59-.26,1.12,1.12,0,0,1-.25-.81,8.34,8.34,0,0,1,.87-2.37,3.28,3.28,0,0,0,.42-.87,0,0,0,0,0,0,0,2.15,2.15,0,0,0-.67.45,21.71,21.71,0,0,1-2.68,1.57.53.53,0,0,1-.65-.07.56.56,0,0,1-.19-.46.48.48,0,0,1,.31-.42,16.81,16.81,0,0,0,4.05-2.77.53.53,0,0,1,.78,0,1.31,1.31,0,0,1,.33.87,5,5,0,0,1-.64,1.92,15.83,15.83,0,0,0-.84,2.1,42.49,42.49,0,0,0,3.33-3.19A22.72,22.72,0,0,1,56.87,43c.32,0,.48.24.48.62l0,.14c-1.08,3-1.82,5.19-2.21,6.65a14.4,14.4,0,0,1,5.14-2L62,48.23a17.77,17.77,0,0,0,4.61-1l.14,0c.35,0,.53.19.53.56a.61.61,0,0,1-.33.56,18.9,18.9,0,0,1-4.7,1l-1.79.25a16.84,16.84,0,0,0-6,2.54A40.16,40.16,0,0,1,50,61a37.42,37.42,0,0,1-4,4.89C44.79,67.38,43.62,68.12,42.54,68.12Zm.2-1.12a1.76,1.76,0,0,0,.81-.3A8.19,8.19,0,0,0,45.36,65c.32-.32,1-1,1.9-2.12A37.17,37.17,0,0,0,53,53.17a43,43,0,0,0-7.26,6.15,21.43,21.43,0,0,0-3.49,4.27,4.68,4.68,0,0,0-.79,2.24,2,2,0,0,0,.11.67.94.94,0,0,0,.84.5Z"/><path class="cls-4" d="M72.24,54.15a.65.65,0,0,1-.53-.22.4.4,0,0,1-.09-.25l0-.23c.39-1,.77-2,1.15-3,.72-1.92,1.47-3.83,2.23-5.73l-.11.08a46,46,0,0,1-8.21,3.64l-.17,0a.44.44,0,0,1-.36-.16.59.59,0,0,1-.14-.39c0-.06,0-.15,0-.27s.13-.22.35-.29A45.18,45.18,0,0,0,75.59,43L75.7,43A92.26,92.26,0,0,1,87.1,24.45,18.87,18.87,0,0,1,92,19.54a3.25,3.25,0,0,1,1.76-.73q1.26,0,1.26,1.68a4.85,4.85,0,0,1-.09,1,19.3,19.3,0,0,1-3,6.79l0,.09A45.94,45.94,0,0,1,76.6,43.9a.39.39,0,0,1-.14.08,61.84,61.84,0,0,0-2.57,6.79l-.34.92a.24.24,0,0,1,.09-.08l1.28-1.15q3.33-3,6.85-5.81a5.64,5.64,0,0,1,7.54-.53,19.2,19.2,0,0,1,1.48,1.37,16.17,16.17,0,0,0,2.12,1.84A19.28,19.28,0,0,0,104,50.46q5.83,0,14.19-3.07l.19,0a.43.43,0,0,1,.34.16.53.53,0,0,1,.14.37c0,.06,0,.15,0,.27s-.12.23-.34.32a53.6,53.6,0,0,1-11.68,2.93,22.41,22.41,0,0,1-3.13.23,20.13,20.13,0,0,1-13.5-5.14,21.63,21.63,0,0,0-2.06-1.88A3.5,3.5,0,0,0,86,43.93Q84,44,81.49,46.36L72.6,54A.51.51,0,0,1,72.24,54.15Zm5.11-12.1.08,0a45.76,45.76,0,0,0,9.7-8.83,37.69,37.69,0,0,0,4.27-6.26c1.61-2.49,2.42-4.58,2.46-6.26,0-.39-.09-.58-.28-.58a1,1,0,0,0-.39.11,7.59,7.59,0,0,0-2,1.31,57.38,57.38,0,0,0-6.74,8.36A97.86,97.86,0,0,0,77.35,42.05Z"/><path class="cls-5" d="M118.89,50.52A1.41,1.41,0,0,1,117.33,49a1.85,1.85,0,0,1,.92-1.65,7.54,7.54,0,0,1,3.83-1.17,3.21,3.21,0,0,1,1.84.58.52.52,0,0,0,.34.12c.37,0,.56.23.56.69,0,1,.7,1.54,2.09,1.54a23.68,23.68,0,0,0,7.69-1.73,2.81,2.81,0,0,1,.67-.2.45.45,0,0,1,.37.2.6.6,0,0,1,.16.39.52.52,0,0,1-.39.53,42.52,42.52,0,0,1-7.44,1.9,4.86,4.86,0,0,1-1,.11,4.29,4.29,0,0,1-2.15-.58,2.4,2.4,0,0,1-1-1.29,11.61,11.61,0,0,1-3.55,1.79A5.06,5.06,0,0,1,118.89,50.52Zm.37-1.2a3.29,3.29,0,0,0,1.2-.28,12.65,12.65,0,0,0,2.63-1.43,2.35,2.35,0,0,0-1.26-.3,5.71,5.71,0,0,0-2,.53c-.86.35-1.3.67-1.3.95a.45.45,0,0,0,.12.28A.78.78,0,0,0,119.26,49.32Z"/><path class="cls-6" d="M135.32,51.69a2,2,0,0,1-1.79-1,2,2,0,0,1-.22-.9,2.77,2.77,0,0,1,1.23-2.09,3.93,3.93,0,0,1,2.54-.93,2.56,2.56,0,0,1,2,.84,9.16,9.16,0,0,1,2.21.27,8.32,8.32,0,0,0,1.82.26,10.09,10.09,0,0,0,3.77-.75l.22,0c.36,0,.53.2.53.59a.6.6,0,0,1-.42.5,9.94,9.94,0,0,1-4.1.89,6.62,6.62,0,0,1-2-.3,5.64,5.64,0,0,0-1.7-.31,1.89,1.89,0,0,1-.45,1,5,5,0,0,1-1.55,1.37A4.07,4.07,0,0,1,135.32,51.69Zm.09-1a1.74,1.74,0,0,0,1.34-.87,3.3,3.3,0,0,1,1.45-2H137a3.2,3.2,0,0,0-2.21,1,1.44,1.44,0,0,0-.39.89.32.32,0,0,0,0,.14C134.4,50.36,134.74,50.61,135.41,50.69Zm2.45-.95c.1,0,.24-.12.42-.35a1,1,0,0,0,.28-.49c0-.08-.05-.11-.16-.11a.77.77,0,0,0-.7.78C137.7,49.68,137.75,49.74,137.86,49.74Z"/></g></g></svg>